# xmcd CD database file
#
# Track frame offsets:
#	150
#	22212
#	45144
#	56366
#	71378
#	88655
#	109912
#	125120
#	146808
#	161959
#	179481
#	193459
#
# Disc length: 2806 seconds
#
# Revision: 1
# Processed by: cddbd v1.5.2PL0 Copyright (c) Steve Scherf et al.
# Submitted via: CDex 1.91
#
DISCID=b60af40c
DTITLE=Piano Club - Piano Club
DYEAR=2000
DGENRE=Jazz
TTITLE0=Four miles accross
TTITLE1=New Light
TTITLE2=Another Sambo
TTITLE3=Just Another Day
TTITLE4=Closer To You
TTITLE5=Mood River
TTITLE6=Don't Change
TTITLE7=Caress
TTITLE8=Shifting Clouds
TTITLE9=Pale Shadows
TTITLE10=Poor Life
TTITLE11=Memories Of An Evening
EXTD=YEAR: 2000
EXTT0=
EXTT1=
EXTT2=
EXTT3=
EXTT4=
EXTT5=
EXTT6=
EXTT7=
EXTT8=
EXTT9=
EXTT10=
EXTT11=
PLAYORDER=
